<svg id="Componente_1_1" data-name="Componente 1 – 1" xmlns="http://www.w3.org/2000/svg" width="124.146" height="61" viewBox="0 0 124.146 61">
  <text id="ToD" transform="translate(0 46)" fill="#7159c1" font-size="50" font-family="FiraCode-Bold, Fira Code" font-weight="700"><tspan x="0" y="0">ToD</tspan></text>
  <path id="Icon_awesome-check-circle" data-name="Icon awesome-check-circle" d="M29.709,15.136A14.573,14.573,0,1,1,15.136.563,14.573,14.573,0,0,1,29.709,15.136ZM13.45,22.852,24.262,12.04a.94.94,0,0,0,0-1.33l-1.33-1.33a.94.94,0,0,0-1.33,0L12.785,18.2,8.668,14.081a.94.94,0,0,0-1.33,0l-1.33,1.33a.94.94,0,0,0,0,1.33l6.111,6.111a.94.94,0,0,0,1.33,0Z" transform="translate(94.438 15.438)" fill="#7159c1"/>
</svg>
