<svg xmlns="http://www.w3.org/2000/svg" xmlns:xlink="http://www.w3.org/1999/xlink" width="111.875" height="125.285" viewBox="0 0 111.875 125.285">
  <defs>
    <filter id="Icon_awesome-calendar-alt" x="0" y="0" width="111.875" height="125.285" filterUnits="userSpaceOnUse">
      <feOffset input="SourceAlpha"/>
      <feGaussianBlur stdDeviation="3" result="blur"/>
      <feFlood flood-opacity="0.161"/>
      <feComposite operator="in" in2="blur"/>
      <feComposite in="SourceGraphic"/>
    </filter>
  </defs>
  <g transform="matrix(1, 0, 0, 1, 0, 0)" filter="url(#Icon_awesome-calendar-alt)">
    <path id="Icon_awesome-calendar-alt-2" data-name="Icon awesome-calendar-alt" d="M0,97.227a10.061,10.061,0,0,0,10.058,10.058H83.817A10.061,10.061,0,0,0,93.875,97.227v-57H0Zm67.053-41.07a2.522,2.522,0,0,1,2.514-2.514H77.95a2.522,2.522,0,0,1,2.515,2.514v8.382a2.522,2.522,0,0,1-2.515,2.515H69.568a2.522,2.522,0,0,1-2.514-2.515Zm0,26.821a2.522,2.522,0,0,1,2.514-2.515H77.95a2.522,2.522,0,0,1,2.515,2.515V91.36a2.522,2.522,0,0,1-2.515,2.514H69.568a2.522,2.522,0,0,1-2.514-2.514ZM40.232,56.157a2.522,2.522,0,0,1,2.515-2.514h8.382a2.522,2.522,0,0,1,2.515,2.514v8.382a2.522,2.522,0,0,1-2.515,2.515H42.747a2.522,2.522,0,0,1-2.515-2.515Zm0,26.821a2.522,2.522,0,0,1,2.515-2.515h8.382a2.522,2.522,0,0,1,2.515,2.515V91.36a2.522,2.522,0,0,1-2.515,2.514H42.747a2.522,2.522,0,0,1-2.515-2.514ZM13.411,56.157a2.522,2.522,0,0,1,2.515-2.514h8.382a2.522,2.522,0,0,1,2.515,2.514v8.382a2.522,2.522,0,0,1-2.515,2.515H15.925a2.522,2.522,0,0,1-2.515-2.515Zm0,26.821a2.522,2.522,0,0,1,2.515-2.515h8.382a2.522,2.522,0,0,1,2.515,2.515V91.36a2.522,2.522,0,0,1-2.515,2.514H15.925a2.522,2.522,0,0,1-2.515-2.514ZM83.817,13.411H73.759V3.353A3.363,3.363,0,0,0,70.406,0H63.7a3.363,3.363,0,0,0-3.353,3.353V13.411H33.527V3.353A3.363,3.363,0,0,0,30.174,0H23.469a3.363,3.363,0,0,0-3.353,3.353V13.411H10.058A10.061,10.061,0,0,0,0,23.469V33.527H93.875V23.469A10.061,10.061,0,0,0,83.817,13.411Z" transform="translate(9 9)" fill="#7159c1"/>
  </g>
</svg>
