<svg xmlns="http://www.w3.org/2000/svg" xmlns:xlink="http://www.w3.org/1999/xlink" width="118" height="118" viewBox="0 0 118 118">
  <defs>
    <filter id="Elipse_15" x="0" y="0" width="118" height="118" filterUnits="userSpaceOnUse">
      <feOffset input="SourceAlpha"/>
      <feGaussianBlur stdDeviation="3" result="blur"/>
      <feFlood flood-opacity="0.404"/>
      <feComposite operator="in" in2="blur"/>
      <feComposite in="SourceGraphic"/>
    </filter>
  </defs>
  <g id="Grupo_56" data-name="Grupo 56" transform="translate(-1007 313)">
    <g transform="matrix(1, 0, 0, 1, 1007, -313)" filter="url(#Elipse_15)">
      <circle id="Elipse_15-2" data-name="Elipse 15" cx="50" cy="50" r="50" transform="translate(9 9)" fill="#7159c1"/>
    </g>
    <path id="Icon_awesome-check" data-name="Icon awesome-check" d="M16.982,53.6.732,31.8a4.2,4.2,0,0,1,0-4.741l3.535-4.741a2.082,2.082,0,0,1,3.536,0L18.75,37,42.2,5.559a2.082,2.082,0,0,1,3.536,0L49.268,10.3a4.2,4.2,0,0,1,0,4.741L20.518,53.6A2.082,2.082,0,0,1,16.982,53.6Z" transform="translate(1041 -283.577)" fill="#fff"/>
  </g>
</svg>
