<svg xmlns="http://www.w3.org/2000/svg" width="127.449" height="61" viewBox="0 0 127.449 61">
  <g id="Grupo_40" data-name="Grupo 40" transform="translate(662 906)">
    <g id="Icon_material-radio-button-checked" data-name="Icon material-radio-button-checked" transform="translate(-573.191 -897)" fill="#7159c1">
      <path d="M 20.82022094726562 39.21673965454102 C 16.1990909576416 39.21673965454102 11.85213088989258 37.36032867431641 8.580101013183594 33.98947906494141 C 5.304151058197021 30.61459922790527 3.500000953674316 26.1287899017334 3.500000953674316 21.35836982727051 C 3.500000953674316 16.58794975280762 5.304151058197021 12.10213947296143 8.580101013183594 8.727259635925293 C 11.85213088989258 5.356410026550293 16.1990909576416 3.499999761581421 20.82022094726562 3.499999761581421 C 25.44135093688965 3.499999761581421 29.78831100463867 5.356410026550293 33.06034088134766 8.727259635925293 C 36.3362922668457 12.10213947296143 38.14044189453125 16.58794975280762 38.14044189453125 21.35836982727051 C 38.14044189453125 26.1287899017334 36.3362922668457 30.61459922790527 33.06034088134766 33.98947906494141 C 29.78831100463867 37.36032867431641 25.44135093688965 39.21673965454102 20.82022094726562 39.21673965454102 Z M 20.82022094726562 6.171669960021973 C 16.8744010925293 6.171669960021973 13.16654109954834 7.752820014953613 10.37965106964111 10.62385940551758 C 7.596691131591797 13.49086952209473 6.064041137695312 17.30312919616699 6.064041137695312 21.35836982727051 C 6.064041137695312 25.41361045837402 7.596691131591797 29.22586059570312 10.37965106964111 32.09286880493164 C 13.16653060913086 34.96390914916992 16.8744010925293 36.54505920410156 20.82022094726562 36.54505920410156 C 24.76604080200195 36.54505920410156 28.47391128540039 34.96390914916992 31.26079177856445 32.09286880493164 C 34.04375076293945 29.22586059570312 35.57640075683594 25.41361045837402 35.57640075683594 21.35836982727051 C 35.57640075683594 17.30312919616699 34.04375076293945 13.49086952209473 31.26079177856445 10.62385940551758 C 28.47390174865723 7.752820014953613 24.76604080200195 6.171669960021973 20.82022094726562 6.171669960021973 Z M 20.82022094726562 30.03754997253418 C 16.18287086486816 30.03754997253418 12.41011047363281 26.14409065246582 12.41011047363281 21.35836982727051 C 12.41011047363281 16.5726490020752 16.18287086486816 12.67918968200684 20.82022094726562 12.67918968200684 C 25.45757102966309 12.67918968200684 29.23033142089844 16.5726490020752 29.23033142089844 21.35836982727051 C 29.23033142089844 26.14409065246582 25.45757102966309 30.03754997253418 20.82022094726562 30.03754997253418 Z" stroke="none"/>
      <path d="M 20.82022094726562 4 C 16.33547019958496 4 12.11592102050781 5.802520751953125 8.938869476318359 9.075508117675781 C 5.753990173339844 12.35656929016113 4 16.71870994567871 4 21.35836982727051 C 4 25.9980297088623 5.753990173339844 30.36016845703125 8.938869476318359 33.64122772216797 C 12.11592102050781 36.91421890258789 16.33547019958496 38.71673965454102 20.82022094726562 38.71673965454102 C 25.30497169494629 38.71673965454102 29.52452087402344 36.91421890258789 32.70156860351562 33.64122772216797 C 35.88645172119141 30.36016845703125 37.64044189453125 25.9980297088623 37.64044189453125 21.35836982727051 C 37.64044189453125 16.71870994567871 35.88645172119141 12.35656929016113 32.70156860351562 9.075508117675781 C 29.52452087402344 5.802520751953125 25.30497169494629 4 20.82022094726562 4 M 20.82022094726562 37.04505920410156 C 16.7380313873291 37.04505920410156 12.90275001525879 35.41001892089844 10.02088165283203 32.44112014770508 C 7.146839141845703 29.48028945922852 5.564041137695312 25.54435920715332 5.564041137695312 21.35836982727051 C 5.564041137695312 17.1723690032959 7.146839141845703 13.23644065856934 10.02088165283203 10.27560806274414 C 12.90275001525879 7.306709289550781 16.7380313873291 5.671669006347656 20.82022094726562 5.671669006347656 C 24.90241050720215 5.671669006347656 28.73768997192383 7.306709289550781 31.61956024169922 10.27560806274414 C 34.49359893798828 13.23644065856934 36.07640075683594 17.1723690032959 36.07640075683594 21.35836982727051 C 36.07640075683594 25.54435920715332 34.49359893798828 29.48028945922852 31.61956024169922 32.44112014770508 C 28.73768997192383 35.41001892089844 24.90241050720215 37.04505920410156 20.82022094726562 37.04505920410156 M 20.82022094726562 13.17918014526367 C 16.45857048034668 13.17918014526367 12.91011047363281 16.84835052490234 12.91011047363281 21.35836982727051 C 12.91011047363281 25.86838912963867 16.45857048034668 29.53754997253418 20.82022094726562 29.53754997253418 C 25.18187141418457 29.53754997253418 28.73033142089844 25.86838912963867 28.73033142089844 21.35836982727051 C 28.73033142089844 16.84835052490234 25.18187141418457 13.17918014526367 20.82022094726562 13.17918014526367 M 20.82022094726562 3 C 30.65698051452637 3 38.64044189453125 11.22455024719238 38.64044189453125 21.35836982727051 C 38.64044189453125 31.49218940734863 30.65698051452637 39.71673965454102 20.82022094726562 39.71673965454102 C 10.98346138000488 39.71673965454102 3 31.49218940734863 3 21.35836982727051 C 3 11.22455024719238 10.98346138000488 3 20.82022094726562 3 Z M 20.82022094726562 36.04505920410156 C 28.69676208496094 36.04505920410156 35.07640075683594 29.47275924682617 35.07640075683594 21.35836982727051 C 35.07640075683594 13.24396896362305 28.69676208496094 6.671669006347656 20.82022094726562 6.671669006347656 C 12.94368171691895 6.671669006347656 6.564041137695312 13.24396896362305 6.564041137695312 21.35836982727051 C 6.564041137695312 29.47275924682617 12.94368171691895 36.04505920410156 20.82022094726562 36.04505920410156 Z M 20.82022094726562 12.17918014526367 C 25.73860168457031 12.17918014526367 29.73033142089844 16.29146003723145 29.73033142089844 21.35836982727051 C 29.73033142089844 26.42527008056641 25.73860168457031 30.53754997253418 20.82022094726562 30.53754997253418 C 15.90184020996094 30.53754997253418 11.91011047363281 26.42527008056641 11.91011047363281 21.35836982727051 C 11.91011047363281 16.29146003723145 15.90184020996094 12.17918014526367 20.82022094726562 12.17918014526367 Z" stroke="none" fill="#0d0d0d"/>
    </g>
    <text id="T0D" transform="translate(-662 -858)" fill="#7159c1" font-size="50" font-family="Montserrat-Bold, Montserrat" font-weight="700"><tspan x="0" y="0">T0D</tspan></text>
  </g>
</svg>
