<?xml version="1.0" standalone="no"?>
<!DOCTYPE svg PUBLIC "-//W3C//DTD SVG 20010904//EN"
 "http://www.w3.org/TR/2001/REC-SVG-20010904/DTD/svg10.dtd">
<svg version="1.0" xmlns="http://www.w3.org/2000/svg"
 width="255.000000pt" height="255.000000pt" viewBox="0 0 255.000000 255.000000"
 preserveAspectRatio="xMidYMid meet">
<metadata>
Created by potrace 1.11, written by Peter Selinger 2001-2013
</metadata>
<g transform="translate(0.000000,255.000000) scale(0.100000,-0.100000)"
fill="#000000" stroke="none">
<path d="M675 1919 c-290 -39 -509 -221 -580 -484 -9 -33 -18 -104 -19 -158
-10 -343 211 -611 559 -677 28 -5 106 -8 175 -6 175 5 302 41 445 127 l50 30
-2 242 c-1 133 -2 252 -2 264 -1 21 -4 22 -136 22 l-135 0 -2 -192 -3 -192
-64 -23 c-214 -76 -449 7 -539 191 -101 207 -32 451 158 555 159 87 401 59
517 -59 15 -16 31 -29 35 -29 4 0 24 16 45 35 21 20 63 59 94 87 l57 52 -40
38 c-93 89 -218 150 -358 173 -58 10 -191 12 -255 4z"/>
<path d="M1584 1901 c-2 -2 -4 -294 -4 -648 l0 -643 475 0 476 0 -3 123 -3
122 -320 0 -320 0 -5 525 -5 525 -143 0 c-79 0 -145 -2 -148 -4z"/>
</g>
</svg>
